# xmcd
#
# Track frame offsets: 
#        150
#        14010
#        35887
#        47172
#        62570
#        73382
#        91395
#        106070
#        116155
#        136177
#        145352
#        158115
#
# Disc length: 2283 seconds
#
# Revision: 8
# Processed by: cddbd v1.5.2PL0 Copyright (c) Steve Scherf et al.
# Submitted via: ExactAudioCopy v0.95b3
#
DISCID=b208e90c
DTITLE=Willie Nelson - The Many Sides Of Willie Nelson: Cowboy
DYEAR=1992
DGENRE=Country
TTITLE0=My Heroes Have Always Been Cowboys
TTITLE1=City Of New Orleans
TTITLE2=On The Road Again
TTITLE3=Mamas, Don't Let Your Babies Grow Up To Be Cowboys
TTITLE4=Whiskey River
TTITLE5=Red Headed Stranger
TTITLE6=South Of The Border
TTITLE7=So You Think You're A Cowboy
TTITLE8=A Horse Called Music
TTITLE9=If You've Got The Money, I've Got The Time
TTITLE10=Midnight Rider
TTITLE11=Good Hearted Woman
EXTD=YEAR: 1992 ID3G: 2
EXTT0=
EXTT1=
EXTT2=
EXTT3=
EXTT4=
EXTT5=
EXTT6=
EXTT7=
EXTT8=
EXTT9=
EXTT10=
EXTT11=
PLAYORDER=
